# xmcd
#
# Track frame offsets: 
#        150
#        10665
#        45781
#        67875
#        103204
#        124893
#        150310
#        173860
#        191017
#        218583
#        244314
#        285123
#
# Disc length: 3967 seconds
#
# Revision: 2
# Processed by: cddbd v1.5.2PL0 Copyright (c) Steve Scherf et al.
# Submitted via: ExactAudioCopy v0.99pb3
#
DISCID=930f7d0c
DTITLE=Horna - Haudankylmyyden Mailla 
DYEAR=2005
DGENRE=Black Metal
TTITLE0=Prologi 
TTITLE1=Yhdeksän Yö 
TTITLE2=Jeesuksen Verestä 
TTITLE3=Ylle Kuihtuneen Ajan Ajatusten 
TTITLE4=Kun Jumalan Sydän On Murskattu 
TTITLE5=(Kaiken) Kristityn Kuolema 
TTITLE6=Viimeinen Sielu Jumalan Valosta 
TTITLE7=Haudankylmyyden Maille 
TTITLE8=Hymni Tuomiopäivänä 
TTITLE9=Peikkomaille 
TTITLE10=Epilogi 
TTITLE11=Sota
EXTD=
EXTT0=
EXTT1=
EXTT2=
EXTT3=
EXTT4=
EXTT5=
EXTT6=
EXTT7=
EXTT8=
EXTT9=
EXTT10=
EXTT11=
PLAYORDER=
